<svg viewBox="0 -2 319 85" fill="none" xmlns="http://www.w3.org/2000/svg" role="img" aria-label="Forbes Česko">
      <path d="M30.2128 8.43501C29.6808 18.435 29.4681 29.818 29.4681 40.6691L37.3404 40.3499C42.8723 40.1371 45.4255 35.9882 46.4894 29.7116H50.2128V55.7754H46.4894C45.4255 49.4988 42.8723 45.3499 37.3404 45.1371L29.5745 44.9244C29.5745 52.9031 29.7872 60.4563 30.2128 66.8393C30.6383 73.8605 32.3404 76.6265 37.0213 77.4776L41.383 78.2222V81.201H0V78.2222L3.61702 77.4776C8.29787 76.5201 10.2128 73.8605 10.9574 66.8393C11.7021 55.5627 12.1277 31.7329 10.9574 18.5414C10.2128 11.5201 8.40425 8.43501 3.61702 7.9031L0 7.47757V4.17969H64.5745L64.8936 26.201L61.1702 26.9456C57.5532 15.1371 52.4468 8.43501 42.5532 8.43501H30.2128Z" fill="#020617"/>
      <path d="M85.0365 24.7117C103.334 24.7117 112.483 37.1585 112.483 53.6479C112.483 69.4989 102.271 82.6904 83.9726 82.6904C65.5684 82.6904 56.4194 70.1372 56.4194 53.6479C56.4194 37.9032 66.7386 24.7117 85.0365 24.7117ZM83.9726 28.4351C75.8875 28.4351 73.6535 39.3926 73.6535 53.6479C73.6535 67.584 77.3769 78.967 84.7173 78.967C93.1216 78.967 95.2492 68.0096 95.2492 53.6479C95.2492 39.7117 91.6322 28.4351 83.9726 28.4351Z" fill="#020617"/>
      <path d="M159.627 26.4137L153.776 41.4137C146.435 36.6265 138.457 38.6478 136.542 41.201C136.223 50.0308 136.223 63.9669 136.967 70.8818C137.286 75.3499 138.457 77.6903 142.074 77.9031L146.435 78.2222V81.201H112.393V78.2222L114.946 77.9031C118.244 77.4776 119.733 75.3499 120.052 70.8818C120.478 63.2223 120.797 47.7967 120.052 39.0733C119.733 34.2861 118.244 32.4776 114.946 32.052L112.393 31.7329V29.4988L136.967 24.7116L136.542 37.5839C142.393 24.3925 153.457 22.6903 159.627 26.4137Z" fill="#020617"/>
      <path d="M195 24.7117C210.319 24.7117 217.34 35.2436 217.34 50.7755C217.34 69.8181 204.787 82.6904 183.83 82.6904C177.128 82.6904 170.106 81.5202 163.511 80.1372C163.936 72.3713 164.255 25.4564 163.511 16.6266C162.766 12.2649 161.702 10.2436 158.404 9.7117L155.851 9.28617V7.15851L180.425 2.69043C180 6.41384 180 17.0521 180 28.7543C184.681 25.9883 189.681 24.7117 195 24.7117ZM184.894 78.967C195.106 78.967 200.106 67.2649 200.106 52.3713C200.106 40.8819 196.808 31.3075 186.915 31.3075C185.106 31.3075 182.553 31.6266 180 32.4777C179.681 51.5202 180 73.2224 180.425 78.3287C181.489 78.7543 183.511 78.967 184.894 78.967Z" fill="#020617"/>
      <path d="M221.738 54.0734C221.738 39.0734 231.312 24.7117 249.93 24.7117C265.355 24.7117 272.695 36.0947 272.695 51.0947H238.653C238.227 64.7117 244.823 74.6053 258.015 74.6053C263.866 74.6053 266.844 73.116 270.461 70.5628L271.951 72.3713C268.334 77.4777 260.249 82.6904 249.93 82.6904C233.44 82.6904 221.738 70.8819 221.738 54.0734ZM238.653 47.0521L255.887 46.733C255.887 39.3926 254.717 28.4351 248.547 28.4351C242.27 28.4351 238.972 38.6479 238.653 47.0521Z" fill="#020617"/>
      <path d="M315.434 27.6904L315.859 41.9458L313.306 42.6904C310.008 32.7968 305.54 28.7543 298.944 28.7543C294.583 28.7543 291.285 32.0521 291.285 36.8394C291.285 41.6266 294.902 44.1798 305.221 48.2223C314.689 51.8394 318.732 56.3075 318.732 63.967C318.732 75.35 309.583 82.6904 295.327 82.6904C288.306 82.6904 280.221 81.2011 275.859 79.3926L275.54 63.2223L278.093 62.4777C282.136 73.4351 287.242 77.4777 294.157 77.4777C300.008 77.4777 303.306 73.4351 303.306 69.0734C303.306 64.7117 300.753 62.1585 291.604 58.8606C282.774 55.8819 276.604 51.8394 276.604 42.3713C276.604 32.7968 285.008 24.7117 298.625 24.7117C305.221 24.7117 311.072 25.7755 315.434 27.6904Z" fill="#020617"/>
      <path d="M258.732 2.92649L256.598 0.000488281H258.556L259.942 1.18849L261.35 0.000488281H263.264L261.108 2.92649H258.732ZM260.008 19.9105C255.938 19.9105 253.672 17.4245 253.672 13.3325V10.3405C253.672 6.27049 256.312 3.74049 259.942 3.74049C263.088 3.74049 265.442 5.25849 265.684 8.82249H262.648C262.45 6.95249 261.592 6.11649 259.942 6.11649C257.962 6.11649 256.796 7.61249 256.796 10.2965V13.3325C256.796 16.0165 257.874 17.5125 259.986 17.5125C261.592 17.5125 262.736 16.6325 262.89 14.6085H265.816C265.574 18.2605 263.264 19.9105 260.008 19.9105ZM267.732 19.6905V3.96049H276.4V6.31449H270.724V10.4285H275.278V12.6725H270.724V17.3365H276.73V19.6905H267.732ZM283.503 19.9105C279.983 19.9105 278.179 18.1725 278.069 15.0485H280.951C281.039 16.7425 281.633 17.6445 283.503 17.6445C284.801 17.6445 285.659 16.8745 285.659 15.5105C285.659 14.0145 284.889 13.5085 282.865 12.8705C279.895 11.9465 278.399 10.8245 278.399 8.05249C278.399 5.47849 280.291 3.74049 283.239 3.74049C286.253 3.74049 288.079 5.17049 288.255 8.14049H285.439C285.307 6.60049 284.537 6.00649 283.239 6.00649C281.963 6.00649 281.259 6.71049 281.259 7.83249C281.259 9.06449 281.787 9.59249 283.877 10.2525C286.759 11.1105 288.585 12.1445 288.585 15.2465C288.585 18.1065 286.605 19.9105 283.503 19.9105ZM290.758 19.6905V3.96049H293.75V10.8905L298.436 3.96049H301.582L296.434 11.3305L301.824 19.6905H298.436L293.75 12.2985V19.6905H290.758ZM308.299 19.9105C304.339 19.9105 301.809 17.3145 301.809 13.3765V10.2965C301.809 6.31449 304.515 3.74049 308.299 3.74049C312.149 3.74049 314.767 6.22649 314.767 10.2525V13.3105C314.767 17.2925 312.237 19.9105 308.299 19.9105ZM308.321 17.5125C310.455 17.5125 311.687 15.9285 311.687 13.3325V10.2745C311.687 7.78849 310.477 6.13849 308.299 6.13849C306.121 6.13849 304.911 7.70049 304.911 10.2745V13.3545C304.911 15.9725 306.209 17.5125 308.321 17.5125Z" fill="#020617"/>
    </svg>